
<global>
amp_veltrack=0
ampeg_release=0.35
</global>

<group>
group_label=Group_0-42
lpc_hicc1=42
lpc_locc1=0

<region>
hikey=B3
hivel=127
lokey=A#3
lovel=0
lpc=ISFjQtEsOcOhHGZDoUUJw21ze0JkTj/CloqnQR3tjr+dVwpBVMRMwUEXFUEPqKrAwdejPy2Y8L97mltA4JrAvwMpKz72Ip8/B6xEwF9AoD4Whtk/r7/OPw6yLsAR8EQ/
lpc_rms=-47.91
pitch_keycenter=A#3
sample=Trumpet_Shake_PP_A#3.opus
</region>

<region>
hikey=B4
hivel=127
lokey=A#4
lovel=0
lpc=xENTQvniPsOZlpNDzcyCw/tXJUMSeLrCOvgjQuRN0L/hL1rBVFUVQdl5o0B0BIzBiruVQRkshcH2Z5hBjKiTwRLkNkEpQxfAcE2CwLVmzEDwaxzBSPx4QQvBW8EoPJtA
lpc_rms=-38.76
pitch_keycenter=A#4
sample=Trumpet_Shake_PP_A#4.opus
</region>

<region>
hikey=B5
hivel=127
lokey=A#5
lovel=0
lpc=GAvpQdMwrsJxNgBDdQb2wp33w0Kdw4/CiYFCQoMPxcHK6hhBWMkmwALFP0BX84m/F+DCv7eRpkCIqILA8uJoQH1RYsBsV/hAB+4cwSLdG0GTE7fAhzxwQANLa8CnChpA
lpc_rms=-29.82
pitch_keycenter=A#5
sample=Trumpet_Shake_PP_A#5.opus
</region>

<region>
hikey=C#4
hivel=127
lokey=C4
lovel=0
lpc=Mw4+QgKpI8PtV2lDy386wzZN40LJRozCIhr/Qa8pIMBgWKrAatK3PxSiLkAZE4K/dZFZwAQ4o0CkaKbA19LFQMVZCsEbtCtBliwLwYMsnkA8f7HA3ngMQUpa7cA8rh1A
lpc_rms=-42.31
sample=Trumpet_Shake_PP_C4.opus
</region>

<region>
hikey=C#5
hivel=127
lokey=C5
lovel=0
lpc=CSleQqjmPsN5HIlDXqpcw0apBEN93aTC9LgsQoJcIsFXATzAb62dQKNrX8Cwlr8/x64JQAW2KsEN6ptBPnOgwU5GYkGEh9jAkC6kv44rHkFkJILBrf2aQWrpd8H5ULxA
lpc_rms=-38.74
pitch_keycenter=C5
sample=Trumpet_Shake_PP_C5.opus
</region>

<region>
hikey=F6
hivel=127
lokey=C6
lovel=0
lpc=B67pQeFAr8LFIPlCLY3WwqEbjkLvKS/CrybeQTpbW8ExLARBQObewOKw7kAuXy2/D9iuwCXV4EAnfC+/UO1Ov3o1fr/PucpAtDkewfIROUFO3BDBxtjOQJCGesAFnglA
lpc_rms=-28.89
pitch_keycenter=C6
sample=Trumpet_Shake_PP_C6.opus
</region>

<region>
hikey=D#4
hivel=127
lokey=D4
lovel=0
lpc=nrNIQuApK8OpvXBDe+U8w4kD4kImtIXCVGS/QeWR+0Cj31nBgRGxQAcIh0B9q97AF+s2QFBqRr+W0AtAPLIUv9JTjMAQKvdA/nDUwIGIZUCE8XLAgzLnQA3x2cAtihpA
lpc_rms=-40.76
pitch_keycenter=D4
sample=Trumpet_Shake_PP_D4.opus
</region>

<region>
hikey=D#5
hivel=127
lokey=D5
lovel=0
lpc=bltWQk0eNcPeXYFDt61Rw/vM/kJM9JjCLzkbQuNtRMGjJJtAc70Awe7BbkEfEErBorFnPh1tdUANmqZAbvUrwWQz4UAs8QtAQFUYwdyoMUGLKE7Bnz+XQfgSisFoldhA
lpc_rms=-39.44
pitch_keycenter=D5
sample=Trumpet_Shake_PP_D5.opus
</region>

<region>
hikey=F4
hivel=127
lokey=E4
lovel=0
lpc=KO5FQvJjKMM8Q2lDckAvw0nix0ISKX/CfeHXQZpnykBO/TbBXocnQFMsZkA4Q5PAiItRPxqQIECJ3ALAyTEmQNKWvMAaDAZBH0H0wGkpn0D5pHnAoBy0QPUzrcALxwVA
lpc_rms=-41.45
pitch_keycenter=E4
sample=Trumpet_Shake_PP_E4.opus
</region>

<region>
hikey=F5
hivel=127
lokey=E5
lovel=0
lpc=DXBBQtlZHsOJDmNDeKBAw6IBAUM1ZbHCVv9rQioXA8IFCXRB7pE+wKbOzD8DnQbBki1UQbwvb8EN26VBrFK5wXnwhEG1FLLADFfJv/k6uECXcA7BlMJTQQ66RsHeDLVA
lpc_rms=-35.30
pitch_keycenter=E5
sample=Trumpet_Shake_PP_E5.opus
</region>

<region>
hikey=G3
hivel=127
lokey=F#3
lovel=0
lpc=nmNJQoz0GsOXZThDVpHlwoZBcEJHMCbCfsiwQXCGzsBBpHZAqUyDwD8Akb+Ol41AFtUNwKZbi78XUoZAlsV6wKvwTj86rQRAbZ2ZwIKNjUD+jnPAaQ3dQL1Z4cCADiJA
lpc_rms=-49.50
pitch_keycenter=F#3
sample=Trumpet_Shake_PP_F#3.opus
</region>

<region>
hikey=G4
hivel=127
lokey=F#4
lovel=0
lpc=NaxhQq3NSsP0fJlDjguEw3KbKkPAEeLCxGOCQsdjlMGl2XXAP2XgQFN6qcDaoyRAR+icP8h81MBaMlNBhc+PwX6eiUFOThDB08cMv30NzEBhXyrBK1VOQRzcEMHVFy9A
lpc_rms=-39.17
pitch_keycenter=F#4
sample=Trumpet_Shake_PP_F#4.opus
</region>

<region>
hikey=G5
hivel=127
lokey=F#5
lovel=0
lpc=H+IZQqfT8sLRQitDOpYOw9kCtUIo8m7Cj7UrQtSmr8HxoDFAI49LQOq+ekB7nPnAkVGtQEVyNMDCH8lAyFVDwe1VaUFFIBrBWkmvQMe5zr9uTyTADDObQKZONcDakKM/
lpc_rms=-34.48
pitch_keycenter=F#5
sample=Trumpet_Shake_PP_F#5.opus
</region>

<region>
hikey=A3
hivel=127
lokey=G#3
lovel=0
lpc=TpxzQlJzRMOHtnNDjlcUw/4ngELMoCTCF4WrQSkpx8CbwfpAPOb+wLhOhj/zrT9Af7c7vzAXhMBlv8lAKi14wDy3Kj+Y4cA/LJN6wHvWJkBGPca+8yF/QGBbyMCc8itA
lpc_rms=-47.66
pitch_keycenter=G#3
sample=Trumpet_Shake_PP_G#3.opus
</region>

<region>
hikey=A4
hivel=127
lokey=G#4
lovel=0
lpc=9NlRQpDBO8P4zY1DXsByw99uF0MkqrHCd/oYQkv6vr8Q/sDASMmiQCbU88B+MKdASpqTP7k6AsEKDH5BYkCLweXaHEETLx69/vSmwIpatEDzO9fAwfMvQcc3KsEDiINA
lpc_rms=-39.73
pitch_keycenter=G#4
sample=Trumpet_Shake_PP_G#4.opus
</region>

<region>
hikey=A5
hivel=127
lokey=G#5
lovel=0
lpc=oT7HQU6MlsILCdxCwnrKwt+RjkKY3SjCP7G1QS8FHMF6KKNAxdSCwJvwiEAcUKi/89vvv9hDg0B3tzS9Pp+OwMsenECbp9O8p+EPwKO0MUA0IQPAcy83QIIc+b/kyFA/
lpc_rms=-34.22
pitch_keycenter=G#5
sample=Trumpet_Shake_PP_G#5.opus
</region>
</group>

<group>
group_label=Group_43-86
lpc_hicc1=86
lpc_locc1=43

<region>
hikey=B3
hivel=127
lokey=A#3
lovel=0
lpc=dsUbQnQoEcNVOG9DBMxpw0AiJkMfEtjC6ciMQkwKJ8JRvLpBe/WTwVmdwEHstdXBY1iNQVHumMAYzPi+R/4OwPjYxECefsLAx3UkQO2NuT9dz4HA1fOHQMc7GcBNCRo/
lpc_rms=-39.15
pitch_keycenter=A#3
sample=Trumpet_Shake_MF_A#3.opus
</region>

<region>
hikey=B4
hivel=127
lokey=A#4
lovel=0
lpc=jKgGQtEu7cKm1jlD2+wuw/Dt7EJeIIDCgDLFQXLPBsCpj5zAB+SCQCsEsj+NggnB7XIsQdVc1cAOroNAR4aywECetkCNB9i+yDXUwHi1JEESKS/BtxkuQTgh/MAz+C5A
lpc_rms=-34.85
pitch_keycenter=A#4
sample=Trumpet_Shake_MF_A#4.opus
</region>

<region>
hikey=B5
hivel=127
lokey=A#5
lovel=0
lpc=i/+IQe7HRsIiUpRCPmuXwiEMhUK1kFPC+/saQv00xMGNy4dBK0dbwRZhVkFhgDTByjIjQSnB7sBRGaVAkI+hvyQa0b+M+thAnsktwTteT0G4dDXBpgogQb5u5sDIyTdA
lpc_rms=-25.90
pitch_keycenter=A#5
sample=Trumpet_Shake_MF_A#5.opus
</region>

<region>
hikey=C#4
hivel=127
lokey=C4
lovel=0
lpc=o9wIQtgA9MJrokRDW3tHw9u8HUPzrtnCINR9Qu1X8cGCkmFBfBcLwetiBEFPUjbBjxNyQdXGgMEIe4RBgqKRwbcMhEHYOhDBoUTdP6qU0D+uC0rAAaVZQPSi8r+xyOo+
lpc_rms=-37.07
sample=Trumpet_Shake_MF_C4.opus
</region>

<region>
hikey=C#5
hivel=127
lokey=C5
lovel=0
lpc=7LoVQnQLCMMBQ2BD7ipjw7pgKUMRZNLC1qZbQip0tMG04w1BSxW+wFOS70AoRRvBbM8QQR21iMA33zY/rfiavTbUQMA+miNB3FxewSpsOkGOHR/BtGI4QfwNHsHKRndA
lpc_rms=-33.90
pitch_keycenter=C5
sample=Trumpet_Shake_MF_C5.opus
</region>

<region>
hikey=F6
hivel=127
lokey=C6
lovel=0
lpc=ca5yQYmxIcLlEmxC1QV2wrqTZEIFbD7CXv4XQgiJ1sGPf5tBot5CwaF0BEGTsnXAn+c0QHezoL8S4TVABdZTwN9avkCevuHAlLEeQZdrM8GgXj9BUhoOwSSOVUBg9xA/
lpc_rms=-26.66
pitch_keycenter=C6
sample=Trumpet_Shake_MF_C6.opus
</region>

<region>
hikey=D#4
hivel=127
lokey=D4
lovel=0
lpc=udv9QSp+3MI4lipD9pQhwy6J50IHP4nCDN/TQehFyT/QpSbBlIAfQRj7scCKcA/A9vIMQXFWHME6LeRAIW+JwAZnG0CtaRU/P/uGwIM/p0AMjn3An1RUQJmDIsDqung/
lpc_rms=-36.64
pitch_keycenter=D4
sample=Trumpet_Shake_MF_D4.opus
</region>

<region>
hikey=D#5
hivel=127
lokey=D5
lovel=0
lpc=qqrQQe6BssJ56BVDHcwpw8lLG0OxKvrCZzW7QsM2h8LSukRCFJ8PwiSb4EFc4bPBrqOKQRqgPsEGBBFBZRYBwRG86kBkd2bAQmQRwAirCkFA6U3BKa5pQUW9MMGDq41A
lpc_rms=-31.50
pitch_keycenter=D5
sample=Trumpet_Shake_MF_D5.opus
</region>

<region>
hikey=F4
hivel=127
lokey=E4
lovel=0
lpc=dzrkQZHdxMLjHBdDIXwNw2WgyULEU3vCnYTqQdb6gsCkRLHAhXK4QGcMWcBK/Bm/31+SQGMlzMANAtRAuR6gwADhkT/3KhxA9cMpwG7thD/IGpa+Zvc6PxjEdr+xWwg/
lpc_rms=-35.24
pitch_keycenter=E4
sample=Trumpet_Shake_MF_E4.opus
</region>

<region>
hikey=F5
hivel=127
lokey=E5
lovel=0
lpc=9jG/QYyDl8K9KOtCUNTxwqo+yUJvCpTCmYdKQjdLA8ITeMJBXbqzwQD1v0ERva3BuCF0QR3b+cDnPbNAlGHIwBfy+EDBitzAvpm4QLgTlsCTeG9Aj3DaPndGP8B4wg9A
lpc_rms=-29.10
pitch_keycenter=E5
sample=Trumpet_Shake_MF_E5.opus
</region>

<region>
hikey=G3
hivel=127
lokey=F#3
lovel=0
lpc=sGFkQq59VMNQo6dDr3+Uw/EfOkP0U/HCEq+pQpUJJcLZNeZAZcGTP/y1Zz/qarY/Eca3wKxd50Aeo3jAOIhGwAK9BEEKPhDBLwXyQHITncA4cV0/1fDLP7NElr/rY1E+
lpc_rms=-41.44
pitch_keycenter=F#3
sample=Trumpet_Shake_MF_F#3.opus
</region>

<region>
hikey=G4
hivel=127
lokey=F#4
lovel=0
lpc=JPX0QZ8918KySCxD/QYuw2lbB0PC8LPC1ahBQlXpiMFlemA/rRGcQFESfcD++cm/duTfQOwEDcEvOBFBLNwFwaUylkATcAo/6HAMwJDUrT5xTeg+xyKiPzrDC8Dx54E/
lpc_rms=-35.56
pitch_keycenter=F#4
sample=Trumpet_Shake_MF_F#4.opus
</region>

<region>
hikey=G5
hivel=127
lokey=F#5
lovel=0
lpc=w4jMQSWjpMJzewJDs5gJw/Im6kK91a7CL+pwQp4lHMJmv+BBp83FwT4XyEGof6HBRf8eQRb0gz1XQ7S/9UgPwNzKx0DjY7/Aca6XQLEsgsB0loJAGaTYvowpGsDG9wpA
lpc_rms=-29.01
pitch_keycenter=F#5
sample=Trumpet_Shake_MF_F#5.opus
</region>

<region>
hikey=A3
hivel=127
lokey=G#3
lovel=0
lpc=UK0oQv0QJsPgY5VDRrqlw3oRhUPlJS7DsevEQvNzSsJRXQBCMnHrwfWSwEHMHkXBqLa2P1Z6kkCOlqzAiEWOP/PIvkCczjjB/qdPQcHQJ8HTCdFA+nZgwFrpxj/QNpe+
lpc_rms=-37.16
pitch_keycenter=G#3
sample=Trumpet_Shake_MF_G#3.opus
</region>

<region>
hikey=A4
hivel=127
lokey=G#4
lovel=0
lpc=EIkUQjENBcNN6VJDE2ZIwyc8CUNGopTC1CvHQaIaakDYzQXBcTGVQC0HXcBvJ5g/ok58QGx/2MBpXMFAup1xwGxmCT8AcVtAAduywJdNl0AdY0/AjN1tQE7uc8BOoNw/
lpc_rms=-35.92
pitch_keycenter=G#4
sample=Trumpet_Shake_MF_G#4.opus
</region>

<region>
hikey=A5
hivel=127
lokey=G#5
lovel=0
lpc=K6q0QYt2jsI+eeFCbhLxwu/j1EIj/6fCKOh7QrGGN8IM3AxC7snUwdYdqUEwh4LBwyNEQYUz2MBJtGhAmg30v994CEA40nq/9Kj7PH8ZEkAx0nzA0OmsQAFjgMDF5Ls/
lpc_rms=-29.76
pitch_keycenter=G#5
sample=Trumpet_Shake_MF_G#5.opus
</region>
</group>

<group>
group_label=Group_87-127
lpc_hicc1=127
lpc_locc1=87

<region>
hikey=B3
hivel=127
lokey=A#3
lovel=0
lpc=bN6JQfvOc8LVdNZCXEkCw3ijAUOu3eLCM6CvQuOScMLulxtCGtDUwW4MqkH8MJnBqjuKQWmIXMGyrSRBBYILwfjtFUHJeC3BA68/QQhGOcH4ExdBabfAwIn8JUCnPQC/
lpc_rms=-33.07
pitch_keycenter=A#3
sample=Trumpet_Shake_FF_A#3.opus
</region>

<region>
hikey=B4
hivel=127
lokey=A#4
lovel=0
lpc=KAaTQdJhdMIPp8FC1qPNwqoktULeJJPCdCBgQo3UIcKQg+tBUFOmwaXhVkGbiwTBa32iQJx7+L/SYA08zj1JvnIIuD9tYPy/k4KvP4WAKT+tf0HAcwqMQEM9ZsCn+7I/
lpc_rms=-31.90
pitch_keycenter=A#4
sample=Trumpet_Shake_FF_A#4.opus
</region>

<region>
hikey=B5
hivel=127
lokey=A#5
lovel=0
lpc=QLEfQUV6ssHnE+VBP/HSwZ+KvkGNtpjBGF1vQen3IMG2tARBEtfJwJfkvEC1u4nAt+yOQOqsTMA/TElA5Ajcv4AxAEBFxVW/CGiBP0hc0L5LAdQ/BBmvv8TWWj9IsZG+
lpc_rms=-24.10
pitch_keycenter=A#5
sample=Trumpet_Shake_FF_A#5.opus
</region>

<region>
hikey=C#4
hivel=127
lokey=C4
lovel=0
lpc=FbiIQe14XcI+qapCymqzwvavn0KWA4HC5qI7QjzT/MFMPK1BZ/R+wYqOU0HB2kXBZaFJQfArSsGjQkhBhi1Iwb/VOkGPDhTB2ZnSQMlyhcBjM/M/gFuBvjqqn76C+lM+
lpc_rms=-33.94
sample=Trumpet_Shake_FF_C4.opus
</region>

<region>
hikey=C#5
hivel=127
lokey=C5
lovel=0
lpc=QPPMQXEBtcLMCBhDE08owxFeFENVTejCtPOmQm+wX8IwzhhCZ7Dewda5qEGL3HrBqgwuQS5rxsBz4zFA+HkTPpHCPcDjdLdAqDUIwfmSOUHDQ1zBem1ZQWwVFcEtp01A
lpc_rms=-30.25
pitch_keycenter=C5
sample=Trumpet_Shake_FF_C5.opus
</region>

<region>
hikey=F6
hivel=127
lokey=C6
lovel=0
lpc=kjRDQcCp68F4XCVCP0cmwrf8GkJUeAHCGuLZQd3lncHxv3pBR4YnwWOlCEE3MqHA2VCRQMFqHMDu4VtAyQYWwMc4XkCX2xrA3MhhQBVyEMDTxq4/dIsZP7eh8r9lJPg/
lpc_rms=-23.25
pitch_keycenter=C6
sample=Trumpet_Shake_FF_C6.opus
</region>

<region>
hikey=D#4
hivel=127
lokey=D4
lovel=0
lpc=PwmkQWlSisJl+d1CkIHuwuLB0EKRyZ/CxOpTQpXH8sHjOYBBOMcHwehNx0BVBOHA6zwMQX52GMHDMhlBOe4RwXMn/EBfX6fAb6MjQLrcaL8YPMM+YAuZvUb2f74W0JI+
lpc_rms=-32.85
pitch_keycenter=D4
sample=Trumpet_Shake_FF_D4.opus
</region>

<region>
hikey=D#5
hivel=127
lokey=D5
lovel=0
lpc=cZSaQZdIfsJokstCjwjewm3zyEKu1qPCRX14QtwFMsJsXgJC7PzLwbMfpEFZm1/BJ2DVQGx+3b82vQVAWrqVwFvkpUDSCKi/MfpywP7R5EBDAgTB4F8GQe3sxMDfHBdA
lpc_rms=-30.36
pitch_keycenter=D5
sample=Trumpet_Shake_FF_D5.opus
</region>

<region>
hikey=F4
hivel=127
lokey=E4
lovel=0
lpc=MDqpQVxvkcJEkutCL8f6wpVT1UIjiJ7C4qdOQhgk88F35pNBPotGwf7SEkFYSNvAYcuPQPJELMB1GFJAr3eqwDDkuUDYunrAtdoYQEpT8b841nw/URrRPu42X798zdw+
lpc_rms=-31.47
pitch_keycenter=E4
sample=Trumpet_Shake_FF_E4.opus
</region>

<region>
hikey=F5
hivel=127
lokey=E5
lovel=0
lpc=EwWJQY1YVMK8MKRCiRWxwrRqo0JJlonCwkxXQp71HsKE5O9BqRa5wSpHj0Gmo0PB6y0CQZIQrMB/wYZAI8xmwJv5UUAE+KS/Eo5Jv44BCkCuMzPAxlyKQNKThsDsDA1A
lpc_rms=-28.10
pitch_keycenter=E5
sample=Trumpet_Shake_FF_E5.opus
</region>

<region>
hikey=G3
hivel=127
lokey=F#3
lovel=0
lpc=TzCVQas9hMIY1uVCC7EJw5AHCEOd3e/CxqjCQt3CmsLxKINCA1NpwnaJTkJZazLCZNoPQp9b0sHQfZpBYx6CwQ7KaUH0M0jBjpomQX+iBMEfvq1A0ysUwM/R1D7VYTI8
lpc_rms=-34.54
pitch_keycenter=F#3
sample=Trumpet_Shake_FF_F#3.opus
</region>

<region>
hikey=G4
hivel=127
lokey=F#4
lovel=0
lpc=B31xQf/AOMLNPoZCOyKGwvZ8Y0LZLivCR8jgQTZxg8FCjBZBpLa9wLxutUDoWuPAu/4JQZoXF8FZKiJBIssiwRziDEH5pL7A865lQJRvDsB4QW8/ynUEPyaxgL/8uvs+
lpc_rms=-31.85
pitch_keycenter=F#4
sample=Trumpet_Shake_FF_F#4.opus
</region>

<region>
hikey=G5
hivel=127
lokey=F#5
lovel=0
lpc=3aGzQRuIkML3zutCX6MEw+x++EK8gc7CwSebQm3nT8KabAVCsF6iwRcgPkECrbLAKB8SQI7KBD/6Lbm/S2KbP5PoKz8J5Ty+XKT+v3WSxEDcPBPB1ewrQc8E+cDTslRA
lpc_rms=-27.76
pitch_keycenter=F#5
sample=Trumpet_Shake_FF_F#5.opus
</region>

<region>
hikey=A3
hivel=127
lokey=G#3
lovel=0
lpc=g+mPQYRDecJeZtJCWELzwuis50JJu8XC+wOcQuOSa8LcoDVCFOoVwvlfA0LEIefBizzCQRh5l8E4S2FBhRArwT0FAkEgXbLAvxFLQJkZlr8fqaM9ME1ZPktBs75+v5U+
lpc_rms=-31.52
pitch_keycenter=G#3
sample=Trumpet_Shake_FF_G#3.opus
</region>

<region>
hikey=A4
hivel=127
lokey=G#4
lovel=0
lpc=kwGQQRxDbcJVu7pC4onGwjL9rEKXPYPCdKQoQvZvtcHdZ0VBc/UUwQOQFUFlWxLBAjkCQbmJ3MBkSepAonENwcypCEGy/7TA/3ReQDF9OcCyAwFAMUuDviroP7+OYwc/
lpc_rms=-32.27
pitch_keycenter=G#4
sample=Trumpet_Shake_FF_G#4.opus
</region>

<region>
hikey=A5
hivel=127
lokey=G#5
lovel=0
lpc=ITajQeV5dsJaYrtCiZy8wmoOnEL8dmrCzR8uQs3m9MEghrlBDBGTwUWDckHWhxTBn/2jQFPhIsDQRGdA8qKIwCHFk0CSZh2+94rIwG+xUEFemGjBcgZTQVgXAsGBnkBA
lpc_rms=-27.01
pitch_keycenter=G#5
sample=Trumpet_Shake_FF_G#5.opus
</region>
</group>